<svg version="1.1" id="Layer_1" xmlns="http://www.w3.org/2000/svg" xmlns:xlink="http://www.w3.org/1999/xlink" x="0px" y="0px"
	 width="100%" viewBox="0 0 345 411" enable-background="new 0 0 345 411" xml:space="preserve">
<path fill="#F9F5E7" opacity="1.000000" stroke="none" 
	d="
M186.000000,412.000000 
	C124.000008,412.000000 62.500023,412.000000 1.000025,412.000000 
	C1.000016,275.000031 1.000016,138.000076 1.000008,1.000080 
	C115.999939,1.000053 230.999878,1.000053 345.999878,1.000027 
	C345.999908,137.999924 345.999908,274.999847 345.999939,411.999878 
	C292.833344,412.000000 239.666672,412.000000 186.000000,412.000000 
M280.853485,342.644958 
	C285.999603,346.362915 291.145752,350.080872 296.475891,353.931763 
	C296.475891,255.759583 296.475891,158.486130 296.475891,60.527752 
	C228.755951,109.612694 161.675201,158.234329 94.048393,207.251770 
	C156.562729,252.551437 218.424271,297.378052 280.853485,342.644958 
M134.913818,103.408379 
	C171.074005,77.958641 207.234207,52.508904 244.111038,26.554790 
	C176.281830,26.554790 109.758011,26.554790 43.256989,26.554790 
	C43.256989,73.686897 43.256989,120.397873 43.256989,167.887512 
	C73.974670,146.284805 104.154556,125.060318 134.913818,103.408379 
M194.415665,354.083313 
	C144.174164,319.024841 93.932648,283.966400 43.410004,248.711761 
	C43.410004,296.056488 43.410004,342.435303 43.410004,388.744812 
	C110.178612,388.744812 176.539322,388.744812 243.997253,388.744812 
	C227.092560,376.934204 211.043365,365.721283 194.415665,354.083313 
z"/>
<path fill="#DA524C" opacity="1.000000" stroke="none" 
	d="
M280.569641,342.424805 
	C218.424271,297.378052 156.562729,252.551437 94.048393,207.251770 
	C161.675201,158.234329 228.755951,109.612694 296.475891,60.527752 
	C296.475891,158.486130 296.475891,255.759583 296.475891,353.931763 
	C291.145752,350.080872 285.999603,346.362915 280.569641,342.424805 
z"/>
<path fill="#DA534D" opacity="1.000000" stroke="none" 
	d="
M134.624146,103.622101 
	C104.154556,125.060318 73.974670,146.284805 43.256989,167.887512 
	C43.256989,120.397873 43.256989,73.686897 43.256989,26.554790 
	C109.758011,26.554790 176.281830,26.554790 244.111038,26.554790 
	C207.234207,52.508904 171.074005,77.958641 134.624146,103.622101 
z"/>
<path fill="#DA524C" opacity="1.000000" stroke="none" 
	d="
M194.704926,354.295837 
	C211.043365,365.721283 227.092560,376.934204 243.997253,388.744812 
	C176.539322,388.744812 110.178612,388.744812 43.410004,388.744812 
	C43.410004,342.435303 43.410004,296.056488 43.410004,248.711761 
	C93.932648,283.966400 144.174164,319.024841 194.704926,354.295837 
z"/>
</svg>